<svg width="262" height="82" viewBox="0 0 262 82" fill="none" xmlns="http://www.w3.org/2000/svg">
<path d="M258.296 49.2469C254.693 13.1325 224.564 3.57007 209.95 3.30315C171.994 5.22497 201 49.2469 144 49.2469H33.5H2" stroke="black"/>
<path d="M177.52 3.10295H239.779" stroke="black"/>
<path d="M210.851 9.10867V42.04C213.254 42.6806 213.587 45.243 213.454 46.4442C212.573 48.6863 210.484 49.1134 209.55 49.0467C207.628 48.8865 206.48 47.2449 206.147 46.4442C206.147 43.4814 207.948 42.2736 208.849 42.04V9.10867H206.147L192.033 46.4442C190.832 49.0467 191.366 52.5166 192.033 54.3517L199.04 70.6672H220.56L226.366 54.3517C227.867 50.448 227.801 47.7788 227.167 46.4442L213.454 9.10867H210.851Z" fill="black"/>
<rect x="198.64" y="73.2697" width="22.4213" height="8.00762" fill="black"/>
<rect y="45" width="6.60629" height="6.60629" fill="black"/>
<rect x="255.294" y="49.2469" width="6.60629" height="6.60629" fill="black"/>
<rect x="206.447" width="6.60629" height="6.60629" fill="black"/>
<circle cx="175.718" cy="2.90276" r="2.30219" fill="black"/>
<circle cx="241.581" cy="2.90276" r="2.30219" fill="black"/>
<path d="M19.96 16.412L19.348 16.448L19.564 18.932L19.708 20.624L19.816 22.964C19.96 25.172 20.032 27.956 20.032 31.316L19.996 39.668C19.996 39.908 19.972 40.268 19.924 40.748C19.876 41.036 19.792 41.24 19.672 41.36C19.576 41.504 19.396 41.6 19.132 41.648C18.844 41.696 18.604 41.72 18.412 41.72L17.908 41.684C17.452 41.636 17.14 41.528 16.972 41.36C16.828 41.216 16.744 40.916 16.72 40.46L16.54 37.688C16.516 37.04 16.456 36.128 16.36 34.952C16.12 31.4 16 26.612 16 20.588C16 19.1 16.108 17.624 16.324 16.16C16.324 16.064 16.348 15.92 16.396 15.728C16.492 15.296 16.624 14.996 16.792 14.828C16.96 14.636 17.212 14.54 17.548 14.54C17.74 14.54 17.896 14.552 18.016 14.576C18.448 14.624 18.76 14.648 18.952 14.648C19.312 14.648 19.624 14.636 19.888 14.612C20.152 14.588 20.38 14.564 20.572 14.54C20.788 14.54 21.088 14.516 21.472 14.468L22.444 14.36L24.316 14.288L26.836 14.252C27.412 14.252 27.892 14.312 28.276 14.432C28.612 14.528 28.852 14.624 28.996 14.72C29.26 14.864 29.392 15.056 29.392 15.296C29.392 15.56 29.236 15.776 28.924 15.944C28.66 16.088 28.432 16.172 28.24 16.196C27.904 16.268 27.424 16.328 26.8 16.376L19.96 16.412ZM32.3941 40.388C31.6741 40.388 31.1581 40.004 30.8461 39.236C30.7981 39.044 30.7501 38.816 30.7021 38.552C30.6781 38.264 30.6541 38.048 30.6301 37.904C30.5101 36.824 30.4501 35.54 30.4501 34.052C30.4501 33.068 30.4621 32.324 30.4861 31.82C30.5821 29.252 30.7741 25.376 31.0621 20.192C31.1341 18.944 31.3261 17.792 31.6381 16.736C31.7581 16.352 31.9141 16.1 32.1061 15.98C32.2981 15.86 32.5981 15.824 33.0061 15.872C33.2221 15.896 33.4861 15.968 33.7981 16.088C34.5661 16.304 34.9981 16.82 35.0941 17.636C35.1181 17.732 35.1301 17.9 35.1301 18.14C35.1541 18.38 35.2381 18.596 35.3821 18.788C35.5021 18.716 35.6581 18.632 35.8501 18.536C36.0421 18.416 36.2221 18.32 36.3901 18.248C37.2781 17.768 38.2141 17.528 39.1981 17.528C39.9661 17.528 40.7101 17.672 41.4301 17.96C42.1501 18.224 42.7861 18.608 43.3381 19.112C44.4661 20.216 45.0301 21.74 45.0301 23.684C45.0301 25.484 44.5621 27.164 43.6261 28.724C42.7861 30.02 41.6941 30.872 40.3501 31.28C40.0381 31.376 39.6661 31.424 39.2341 31.424C38.5381 31.424 37.8421 31.244 37.1461 30.884C36.9061 30.788 36.6301 30.656 36.3181 30.488C36.0301 30.296 35.8141 30.152 35.6701 30.056C35.5261 30.104 35.4541 30.236 35.4541 30.452C35.4541 32.18 35.4901 33.908 35.5621 35.636L35.5981 38.156C35.5981 38.78 35.4421 39.26 35.1301 39.596C34.8421 39.908 34.4101 40.136 33.8341 40.28C33.4981 40.352 33.0181 40.388 32.3941 40.388ZM37.2181 28.688C38.1781 28.568 38.9701 28.088 39.5941 27.248C40.2661 26.312 40.7461 25.22 41.0341 23.972C41.1301 23.612 41.1781 23.216 41.1781 22.784C41.1781 21.92 40.9621 20.972 40.5301 19.94C40.5301 19.916 40.5061 19.904 40.4581 19.904C40.4341 19.88 40.3981 19.844 40.3501 19.796C39.3421 19.988 38.4421 20.54 37.6501 21.452C37.1941 21.98 36.6421 22.808 35.9941 23.936L36.3181 24.764C36.1261 25.292 36.0301 25.748 36.0301 26.132C36.0301 26.996 36.4261 27.848 37.2181 28.688ZM56.2818 41.972C55.5858 41.852 55.2018 41.492 55.1298 40.892L54.9858 40.028C54.8898 39.62 54.8178 39.224 54.7698 38.84C54.7458 38.744 54.7218 38.564 54.6978 38.3C54.6738 38.036 54.6018 37.796 54.4818 37.58C54.4578 37.628 54.3978 37.652 54.3018 37.652C53.7498 38.084 53.0418 38.3 52.1778 38.3C51.7938 38.3 51.5058 38.288 51.3138 38.264C50.4738 38.12 49.7658 37.736 49.1898 37.112C48.5178 36.368 48.0018 35.528 47.6418 34.592L47.3538 33.62C47.2098 33.188 47.0178 32.54 46.7778 31.676C46.3218 29.732 46.0938 27.884 46.0938 26.132C46.0938 24.044 46.4778 22.028 47.2458 20.084C47.6538 19.22 48.0858 18.5 48.5418 17.924C49.6698 16.652 51.0258 16.016 52.6098 16.016C53.7618 16.016 54.8538 16.28 55.8858 16.808C56.2698 17.048 56.7618 17.468 57.3618 18.068C57.6738 18.38 57.8778 18.728 57.9738 19.112C58.0938 19.472 58.1658 19.904 58.1898 20.408L58.4418 23.36L58.6578 25.448C58.8018 26.6 58.8858 27.452 58.9098 28.004C59.0298 30.404 59.1858 33.776 59.3778 38.12L59.3418 40.46C59.2698 41.156 58.9218 41.6 58.2978 41.792C57.7938 41.96 57.3378 42.044 56.9298 42.044C56.7858 42.044 56.5698 42.02 56.2818 41.972ZM51.8178 35.024C51.9378 34.616 52.0218 34.352 52.0698 34.232C52.7418 31.688 53.3058 28.616 53.7618 25.016C53.8818 24.296 53.9418 23.66 53.9418 23.108C53.9418 22.82 53.9178 22.436 53.8698 21.956C53.8458 21.404 53.8698 20.768 53.9418 20.048L53.9778 19.076C54.0738 18.644 54.1938 18.344 54.3378 18.176C54.4098 18.152 54.4578 18.116 54.4818 18.068C54.5058 18.02 54.4938 17.96 54.4458 17.888C54.3258 17.768 54.1818 17.708 54.0138 17.708C53.8698 17.708 53.7618 17.732 53.6898 17.78C53.1618 18.044 52.7778 18.284 52.5378 18.5C51.9858 18.98 51.5058 19.676 51.0978 20.588C50.4498 22.076 50.0538 23.588 49.9098 25.124C49.8618 25.796 49.8378 26.3 49.8378 26.636C49.8378 27.836 50.0178 29.432 50.3778 31.424C50.6898 32.768 51.0138 33.812 51.3498 34.556C51.3738 34.58 51.4098 34.664 51.4578 34.808C51.5058 34.952 51.6258 35.024 51.8178 35.024ZM80.0927 40.676C79.9967 40.7 79.8647 40.724 79.6967 40.748C79.5767 41.252 79.5047 41.744 79.4807 42.224C79.4567 42.728 79.4447 43.04 79.4447 43.16C79.4207 43.52 79.3487 43.784 79.2287 43.952C79.1327 44.12 78.9047 44.252 78.5447 44.348C78.1607 44.492 77.7647 44.564 77.3567 44.564C76.9007 44.564 76.4687 44.48 76.0607 44.312C75.6527 44.168 75.4487 43.892 75.4487 43.484V43.376C75.4727 42.968 75.4847 42.344 75.4847 41.504C75.4847 41.36 75.4607 41.144 75.4127 40.856L72.2087 40.352C70.1447 39.968 68.1887 39.248 66.3407 38.192C64.9727 37.4 63.7967 36.452 62.8127 35.348C61.2527 33.572 60.4727 31.532 60.4727 29.228C60.4727 27.5 61.0007 25.844 62.0567 24.26C62.9927 22.892 64.1207 21.74 65.4407 20.804C67.4327 19.316 69.8327 18.236 72.6407 17.564C72.9527 17.468 73.2287 17.408 73.4687 17.384C73.7327 17.336 73.9487 17.288 74.1167 17.24C74.3567 17.216 74.6927 17.156 75.1247 17.06L75.6287 16.916L75.7367 15.836L75.9527 14.432C76.0727 13.952 76.3487 13.676 76.7807 13.604C76.9487 13.58 77.2007 13.568 77.5367 13.568C77.7767 13.568 77.9567 13.58 78.0767 13.604C78.7007 13.676 79.0847 14.024 79.2287 14.648C79.2767 14.84 79.3127 15.08 79.3367 15.368C79.3847 15.632 79.4207 15.836 79.4447 15.98C79.4927 16.316 79.5407 16.58 79.5887 16.772L80.7047 16.88C83.9927 17.144 86.9327 18.008 89.5247 19.472C90.8447 20.24 91.9847 21.176 92.9447 22.28C94.0967 23.648 94.7927 25.172 95.0327 26.852C95.1047 27.284 95.1407 27.692 95.1407 28.076C95.1407 28.964 94.9607 29.972 94.6007 31.1C93.8807 32.996 92.6687 34.688 90.9647 36.176C88.8527 38.024 86.2367 39.332 83.1167 40.1C82.7567 40.196 82.4327 40.268 82.1447 40.316C81.8807 40.364 81.6647 40.4 81.4967 40.424C81.2567 40.448 80.8967 40.508 80.4167 40.604C80.3207 40.628 80.2127 40.652 80.0927 40.676ZM79.9487 38.192C79.9487 38.264 79.9727 38.372 80.0207 38.516C80.1167 38.564 80.1887 38.588 80.2367 38.588C80.4767 38.588 80.6567 38.576 80.7767 38.552C83.1527 38.024 85.2167 37.1 86.9687 35.78C88.4087 34.724 89.4647 33.464 90.1367 32C90.6887 30.776 90.9647 29.624 90.9647 28.544C90.9647 28.256 90.9167 27.8 90.8207 27.176C90.4367 25.184 89.4407 23.456 87.8327 21.992C85.8887 20.216 83.4887 19.1 80.6327 18.644C80.4407 18.62 80.2607 18.62 80.0927 18.644C79.9487 18.644 79.8167 18.644 79.6967 18.644C79.6727 18.98 79.6727 19.376 79.6967 19.832C79.7447 20.288 79.7807 20.636 79.8047 20.876C79.8527 21.98 79.9007 22.808 79.9487 23.36C80.1407 27.2 80.2367 30.08 80.2367 32C80.2367 32.768 80.2127 33.62 80.1647 34.556C80.1167 35.468 80.0807 36.104 80.0567 36.464L79.9487 38.192ZM75.5207 20.984L75.4487 18.644C71.6567 19.412 68.7047 21.08 66.5927 23.648C66.0167 24.416 65.5607 25.256 65.2247 26.168C64.8407 27.152 64.6487 28.148 64.6487 29.156C64.6487 30.548 65.0327 31.892 65.8007 33.188C66.5927 34.46 67.6247 35.54 68.8967 36.428C70.6007 37.604 72.6167 38.384 74.9447 38.768C75.0407 38.792 75.1487 38.792 75.2687 38.768C75.4127 38.744 75.5327 38.732 75.6287 38.732C75.7247 36.812 75.7727 34.664 75.7727 32.288C75.7727 29.168 75.6887 25.4 75.5207 20.984ZM100.043 33.188C100.043 33.356 100.067 33.848 100.115 34.664L100.403 34.304L102.311 28.652C102.359 28.46 102.407 28.328 102.455 28.256C102.911 27.176 103.655 25.196 104.687 22.316C104.879 21.812 105.095 21.212 105.335 20.516C105.575 19.82 105.863 19.04 106.199 18.176C106.535 17.312 106.799 16.664 106.991 16.232C107.447 15.176 108.239 14.648 109.367 14.648C109.751 14.648 110.123 14.696 110.483 14.792C111.083 14.984 111.467 15.356 111.635 15.908C111.803 16.292 111.899 16.676 111.923 17.06C112.067 18.596 112.139 19.736 112.139 20.48C112.139 20.984 112.127 21.356 112.103 21.596C112.007 23.108 111.947 24.212 111.923 24.908L111.815 27.104L111.455 33.404L111.347 35.276C111.251 36.668 111.203 37.688 111.203 38.336C111.203 38.84 111.215 39.224 111.239 39.488C111.239 39.992 111.215 40.364 111.167 40.604C111.119 40.892 111.011 41.12 110.843 41.288C110.675 41.48 110.459 41.624 110.195 41.72C109.955 41.84 109.691 41.9 109.403 41.9C109.019 41.9 108.659 41.816 108.323 41.648C108.011 41.48 107.783 41.252 107.639 40.964C107.471 40.58 107.363 40.148 107.315 39.668C107.267 38.9 107.243 38.324 107.243 37.94C107.147 36.404 107.099 35.252 107.099 34.484C107.123 32.348 107.207 29.144 107.351 24.872C107.375 24.656 107.399 24.404 107.423 24.116C107.447 23.828 107.459 23.492 107.459 23.108L107.423 22.532C107.303 22.82 107.207 23.084 107.135 23.324L105.803 27.212L103.391 34.304L102.311 37.472L101.735 39.344L101.519 40.1C101.327 40.676 101.111 41.048 100.871 41.216C100.631 41.408 100.223 41.504 99.6466 41.504C98.6626 41.504 98.0026 41.108 97.6666 40.316C97.4746 39.884 97.3066 39.284 97.1626 38.516C97.0906 38.228 97.0306 37.784 96.9826 37.184L96.8746 35.852C96.6346 32.3 96.5026 29.648 96.4786 27.896C96.4786 27.56 96.4546 27.056 96.4066 26.384L96.2986 24.8C96.2506 23.312 96.2266 22.184 96.2266 21.416C96.2266 19.568 96.2986 18.044 96.4426 16.844L96.5146 16.196C96.5866 15.812 96.7306 15.548 96.9466 15.404C97.1626 15.236 97.4986 15.152 97.9546 15.152C98.9626 15.152 99.5386 15.608 99.6826 16.52C99.8506 17.432 99.9466 18.272 99.9706 19.04C100.091 22.352 100.151 25.352 100.151 28.04C100.151 28.832 100.127 29.996 100.079 31.532L100.043 33.188ZM117.061 25.34C117.109 25.34 117.181 25.364 117.277 25.412L117.961 24.692C119.593 22.628 120.805 21.056 121.597 19.976C121.741 19.784 121.897 19.544 122.065 19.256C122.233 18.968 122.365 18.74 122.461 18.572L122.893 17.78C123.421 16.892 123.865 16.22 124.225 15.764C124.537 15.356 124.933 15.152 125.413 15.152C125.653 15.152 125.881 15.188 126.097 15.26C126.457 15.404 126.637 15.62 126.637 15.908V16.016C126.637 16.208 126.589 16.496 126.493 16.88C126.037 18.536 125.341 20.024 124.405 21.344C122.797 23.576 121.057 25.424 119.185 26.888L118.465 27.536L119.473 28.688C120.313 29.672 120.985 30.368 121.489 30.776C122.857 31.904 124.081 33.272 125.161 34.88L127.141 37.616C127.789 38.456 128.449 39.368 129.121 40.352C129.313 40.592 129.505 40.856 129.697 41.144C129.745 41.216 129.769 41.312 129.769 41.432C129.769 41.672 129.685 41.84 129.517 41.936C129.061 42.2 128.533 42.332 127.933 42.332C127.645 42.332 127.417 42.32 127.249 42.296C126.601 42.2 126.073 41.84 125.665 41.216C125.377 40.784 124.921 40.16 124.297 39.344L123.757 38.624C123.733 38.576 123.493 38.264 123.037 37.688C122.365 36.848 121.813 36.104 121.381 35.456C120.469 34.088 119.377 32.84 118.105 31.712C117.457 31.136 117.133 30.848 117.133 30.848C116.989 30.872 116.917 30.956 116.917 31.1V31.28C116.869 32.24 116.845 32.948 116.845 33.404C116.749 35.516 116.677 37.652 116.629 39.812C116.605 40.268 116.485 40.628 116.269 40.892C116.077 41.132 115.753 41.312 115.297 41.432C114.913 41.528 114.637 41.576 114.469 41.576C114.205 41.576 113.965 41.528 113.749 41.432C113.341 40.952 113.137 40.316 113.137 39.524V33.872C113.137 31.352 113.149 29.468 113.173 28.22C113.197 26.78 113.293 25.112 113.461 23.216L113.641 20.156L113.821 17.744C113.845 17.288 113.905 16.664 114.001 15.872C114.073 15.44 114.313 15.2 114.721 15.152C114.961 15.104 115.153 15.08 115.297 15.08L115.729 15.116C116.233 15.188 116.533 15.476 116.629 15.98C116.773 16.58 116.857 17.084 116.881 17.492C117.025 18.788 117.097 20.42 117.097 22.388V24.224C117.073 24.464 117.061 24.836 117.061 25.34ZM141.583 29.228L141.799 29.192L142.231 27.032L144.283 17.78C144.379 17.3 144.571 16.58 144.859 15.62C144.955 15.284 145.231 15.092 145.687 15.044C146.023 15.044 146.275 15.104 146.443 15.224C146.611 15.344 146.743 15.56 146.839 15.872C146.935 16.4 146.983 16.796 146.983 17.06C147.031 17.924 147.043 18.584 147.019 19.04C146.899 22.616 146.563 25.7 146.011 28.292L145.867 29.264C145.747 30.224 145.543 31.232 145.255 32.288C144.991 33.344 144.823 33.992 144.751 34.232C144.487 35.144 144.319 35.744 144.247 36.032C143.935 37.328 143.251 38.492 142.195 39.524L141.727 39.956C140.527 41.252 138.871 41.9 136.759 41.9C135.967 41.9 134.971 41.768 133.771 41.504C133.483 41.408 133.183 41.264 132.871 41.072C132.775 41 132.727 40.892 132.727 40.748C132.727 40.628 132.751 40.532 132.799 40.46C133.111 39.932 133.567 39.668 134.167 39.668C134.359 39.668 134.503 39.68 134.599 39.704C134.983 39.776 135.559 39.908 136.327 40.1C136.567 40.148 136.723 40.172 136.795 40.172C137.251 40.172 137.659 39.992 138.019 39.632C139.387 38.36 140.227 36.92 140.539 35.312C140.563 35.216 140.575 35.084 140.575 34.916C140.575 34.628 140.479 34.376 140.287 34.16C139.855 33.656 139.471 33.128 139.135 32.576C138.823 32 138.451 31.268 138.019 30.38C137.827 29.948 137.431 29.228 136.831 28.22L136.327 27.428C135.511 26.084 134.911 25.064 134.527 24.368C133.735 22.856 132.979 21.344 132.259 19.832C131.995 19.328 131.647 18.548 131.215 17.492C130.999 16.988 130.891 16.448 130.891 15.872C130.891 15.248 131.263 14.936 132.007 14.936C132.727 14.936 133.267 15.2 133.627 15.728C134.443 16.856 134.911 17.516 135.031 17.708C135.367 18.236 135.607 18.644 135.751 18.932C137.047 21.044 137.971 22.652 138.523 23.756C138.883 24.476 139.615 25.808 140.719 27.752L141.583 29.228ZM156.002 40.64C154.442 40.64 152.99 40.208 151.646 39.344C150.782 38.768 150.11 37.988 149.63 37.004C149.318 36.428 149.066 35.828 148.874 35.204C148.682 34.58 148.502 33.848 148.334 33.008C148.19 32.024 148.118 31.052 148.118 30.092C148.118 29.084 148.178 27.944 148.298 26.672C148.418 24.872 148.73 23.192 149.234 21.632C149.594 20.432 150.254 19.208 151.214 17.96L151.934 17.204C152.822 16.34 153.854 15.908 155.03 15.908C155.534 15.908 156.038 15.98 156.542 16.124C157.454 16.412 158.126 16.712 158.558 17.024C159.158 17.48 159.638 17.912 159.998 18.32C160.646 19.064 160.97 19.928 160.97 20.912C160.97 21.512 160.862 22.124 160.646 22.748C160.526 23.012 160.31 23.144 159.998 23.144C159.326 23.144 158.81 22.976 158.45 22.64C158.186 22.4 158.054 22.112 158.054 21.776L157.874 20.372C157.706 19.532 157.358 18.86 156.83 18.356C156.542 18.428 156.302 18.548 156.11 18.716C155.942 18.884 155.762 19.088 155.57 19.328C154.466 20.552 153.722 21.92 153.338 23.432C152.882 24.992 152.642 26.384 152.618 27.608C152.618 27.824 152.594 28.148 152.546 28.58C152.522 28.916 152.498 29.324 152.474 29.804C152.45 30.284 152.438 30.848 152.438 31.496C152.438 32.744 152.57 33.884 152.834 34.916C153.074 35.876 153.434 36.74 153.914 37.508C154.226 37.988 154.61 38.324 155.066 38.516C155.546 38.228 155.846 38.024 155.966 37.904C156.83 37.256 157.526 36.536 158.054 35.744C158.198 35.504 158.366 35.336 158.558 35.24C158.774 35.144 159.038 35.096 159.35 35.096C159.854 35.096 160.322 35.228 160.754 35.492C160.922 35.612 161.03 35.72 161.078 35.816C161.126 35.912 161.126 36.056 161.078 36.248C161.03 36.392 160.886 36.776 160.646 37.4C160.238 38.168 159.614 38.924 158.774 39.668C157.982 40.316 157.058 40.64 156.002 40.64Z" fill="black"/>
</svg>
