<svg width="80" height="80" viewBox="0 0 80 80" fill="none" xmlns="http://www.w3.org/2000/svg">
<circle cx="40" cy="40" r="40" fill="#97CC04"/>
<path d="M40.1203 15C40.5867 15.0003 41.0438 15.1331 41.4404 15.3837C41.837 15.6343 42.1575 15.9927 42.366 16.4187L48.8469 29.6518L63.0897 31.7659C63.5536 31.8347 63.9895 32.0347 64.3479 32.3434C64.7063 32.652 64.973 33.057 65.1178 33.5124C65.2626 33.9678 65.2797 34.4555 65.1673 34.9204C65.0548 35.3852 64.8172 35.8086 64.4813 36.1427L54.1144 46.4665L56.4455 61.0234C56.5204 61.4946 56.4651 61.9778 56.2858 62.4187C56.1064 62.8596 55.8102 63.2406 55.4305 63.5189C55.0507 63.7972 54.6024 63.9618 54.136 63.9941C53.6697 64.0264 53.2037 63.9252 52.7906 63.7018L40.1203 56.8364L27.45 63.7018C27.0369 63.9252 26.571 64.0264 26.1046 63.9941C25.6382 63.9618 25.19 63.7972 24.8102 63.5189C24.4304 63.2406 24.1342 62.8596 23.9549 62.4187C23.7755 61.9778 23.7202 61.4946 23.7951 61.0234L26.1262 46.4665L15.7593 36.1427C15.4235 35.8086 15.1859 35.3852 15.0734 34.9204C14.9609 34.4555 14.978 33.9678 15.1228 33.5124C15.2676 33.057 15.5343 32.652 15.8927 32.3434C16.2512 32.0347 16.687 31.8347 17.151 31.7659L31.3938 29.6518L37.8746 16.4187C38.0831 15.9927 38.4036 15.6343 38.8002 15.3837C39.1968 15.1331 39.6539 15.0003 40.1203 15ZM40.1203 23.3021L35.3024 33.1436C35.1216 33.5137 34.8558 33.8337 34.5278 34.0762C34.1997 34.3188 33.8191 34.4768 33.4184 34.5367L22.9084 36.0965L30.5698 43.7239C30.8594 44.012 31.0766 44.3672 31.2029 44.7593C31.3293 45.1515 31.3612 45.569 31.2958 45.9764L29.5701 56.744L38.9422 51.6643C39.305 51.4675 39.7095 51.3646 40.1203 51.3646C40.5311 51.3646 40.9356 51.4675 41.2984 51.6643L50.6705 56.744L48.9448 45.9764C48.8799 45.5694 48.9119 45.1524 49.0383 44.7607C49.1647 44.3691 49.3816 44.0143 49.6708 43.7264L57.3323 36.0965L46.8247 34.5367C46.424 34.4768 46.0434 34.3188 45.7154 34.0762C45.3873 33.8337 45.1216 33.5137 44.9408 33.1436L40.1203 23.3021Z" fill="#FBF8EE"/>
</svg>
