<svg width="80" height="80" viewBox="0 0 80 80" fill="none" xmlns="http://www.w3.org/2000/svg">
<circle cx="40" cy="40" r="40" fill="#F77A07"/>
<path d="M40.4298 18C40.9982 18 41.5432 18.2258 41.9451 18.6277C42.347 19.0296 42.5728 19.5746 42.5728 20.143V22.286C42.5728 22.8543 42.347 23.3994 41.9451 23.8013C41.5432 24.2032 40.9982 24.4289 40.4298 24.4289C39.8615 24.4289 39.3164 24.2032 38.9145 23.8013C38.5126 23.3994 38.2868 22.8543 38.2868 22.286V20.143C38.2868 19.5746 38.5126 19.0296 38.9145 18.6277C39.3164 18.2258 39.8615 18 40.4298 18ZM55.5828 24.2768C55.9846 24.6787 56.2103 25.2236 56.2103 25.7919C56.2103 26.3601 55.9846 26.9051 55.5828 27.307L54.0677 28.8221C53.8701 29.0267 53.6336 29.19 53.3721 29.3023C53.1107 29.4146 52.8295 29.4737 52.5449 29.4762C52.2604 29.4787 51.9782 29.4245 51.7148 29.3167C51.4515 29.209 51.2122 29.0498 51.011 28.8486C50.8098 28.6474 50.6507 28.4081 50.5429 28.1448C50.4352 27.8814 50.3809 27.5992 50.3834 27.3147C50.3859 27.0301 50.445 26.7489 50.5573 26.4875C50.6696 26.226 50.8329 25.9896 51.0376 25.7919L52.5527 24.2768C52.9545 23.875 53.4995 23.6494 54.0677 23.6494C54.636 23.6494 55.181 23.875 55.5828 24.2768ZM25.2768 24.2768C25.6787 23.875 26.2236 23.6494 26.7919 23.6494C27.3601 23.6494 27.9051 23.875 28.307 24.2768L29.8221 25.7919C30.2124 26.1961 30.4284 26.7374 30.4235 27.2993C30.4187 27.8611 30.1933 28.3986 29.7959 28.7959C29.3986 29.1933 28.8611 29.4187 28.2993 29.4235C27.7374 29.4284 27.1961 29.2124 26.7919 28.8221L25.2768 27.307C24.875 26.9051 24.6494 26.3601 24.6494 25.7919C24.6494 25.2236 24.875 24.6787 25.2768 24.2768ZM40.4298 30.8579C38.1564 30.8579 35.9761 31.761 34.3685 33.3685C32.761 34.9761 31.8579 37.1564 31.8579 39.4298C31.8579 41.7032 32.761 43.8835 34.3685 45.4911C35.9761 47.0986 38.1564 48.0017 40.4298 48.0017C42.7032 48.0017 44.8835 47.0986 46.4911 45.4911C48.0986 43.8835 49.0017 41.7032 49.0017 39.4298C49.0017 37.1564 48.0986 34.9761 46.4911 33.3685C44.8835 31.761 42.7032 30.8579 40.4298 30.8579ZM27.5719 39.4298C27.5719 36.0197 28.9266 32.7492 31.3379 30.3379C33.7492 27.9266 37.0197 26.5719 40.4298 26.5719C43.8399 26.5719 47.1104 27.9266 49.5217 30.3379C51.933 32.7492 53.2877 36.0197 53.2877 39.4298C53.2877 42.8399 51.933 46.1104 49.5217 48.5217C47.1104 50.933 43.8399 52.2877 40.4298 52.2877C37.0197 52.2877 33.7492 50.933 31.3379 48.5217C28.9266 46.1104 27.5719 42.8399 27.5719 39.4298ZM19 39.4298C19 38.8615 19.2258 38.3164 19.6277 37.9145C20.0296 37.5126 20.5746 37.2868 21.143 37.2868H23.286C23.8543 37.2868 24.3994 37.5126 24.8013 37.9145C25.2032 38.3164 25.4289 38.8615 25.4289 39.4298C25.4289 39.9982 25.2032 40.5432 24.8013 40.9451C24.3994 41.347 23.8543 41.5728 23.286 41.5728H21.143C20.5746 41.5728 20.0296 41.347 19.6277 40.9451C19.2258 40.5432 19 39.9982 19 39.4298ZM55.4307 39.4298C55.4307 38.8615 55.6565 38.3164 56.0583 37.9145C56.4602 37.5126 57.0053 37.2868 57.5737 37.2868H59.7166C60.285 37.2868 60.8301 37.5126 61.232 37.9145C61.6338 38.3164 61.8596 38.8615 61.8596 39.4298C61.8596 39.9982 61.6338 40.5432 61.232 40.9451C60.8301 41.347 60.285 41.5728 59.7166 41.5728H57.5737C57.0053 41.5728 56.4602 41.347 56.0583 40.9451C55.6565 40.5432 55.4307 39.9982 55.4307 39.4298ZM26.7919 50.0376C27.1961 49.6472 27.7374 49.4312 28.2993 49.4361C28.8611 49.441 29.3986 49.6663 29.7959 50.0637C30.1933 50.461 30.4187 50.9985 30.4235 51.5604C30.4284 52.1222 30.2124 52.6636 29.8221 53.0677L28.307 54.5828C27.9028 54.9732 27.3615 55.1892 26.7996 55.1843C26.2377 55.1794 25.7002 54.9541 25.3029 54.5567C24.9056 54.1594 24.6802 53.6219 24.6753 53.06C24.6704 52.4981 24.8864 51.9568 25.2768 51.5527L26.7919 50.0376ZM51.0376 53.0677C50.6472 52.6636 50.4312 52.1222 50.4361 51.5604C50.441 50.9985 50.6663 50.461 51.0637 50.0637C51.461 49.6663 51.9985 49.441 52.5604 49.4361C53.1222 49.4312 53.6636 49.6472 54.0677 50.0376L55.5828 51.5527C55.9732 51.9568 56.1892 52.4981 56.1843 53.06C56.1794 53.6219 55.9541 54.1594 55.5567 54.5567C55.1594 54.9541 54.6219 55.1794 54.06 55.1843C53.4981 55.1892 52.9568 54.9732 52.5527 54.5828L51.0376 53.0677ZM40.4298 54.4307C40.9982 54.4307 41.5432 54.6565 41.9451 55.0583C42.347 55.4602 42.5728 56.0053 42.5728 56.5737V58.7166C42.5728 59.285 42.347 59.8301 41.9451 60.232C41.5432 60.6338 40.9982 60.8596 40.4298 60.8596C39.8615 60.8596 39.3164 60.6338 38.9145 60.232C38.5126 59.8301 38.2868 59.285 38.2868 58.7166V56.5737C38.2868 56.0053 38.5126 55.4602 38.9145 55.0583C39.3164 54.6565 39.8615 54.4307 40.4298 54.4307Z" fill="#FBF8EE"/>
</svg>
