<svg width="80" height="80" viewBox="0 0 80 80" fill="none" xmlns="http://www.w3.org/2000/svg">
<circle cx="40" cy="40" r="40" fill="#F77A07"/>
<path d="M47.1723 39.7857C47.1723 41.6936 46.4144 43.5234 45.0652 44.8725C43.7161 46.2216 41.8863 46.9795 39.9784 46.9795C38.0705 46.9795 36.2407 46.2216 34.8916 44.8725C33.5425 43.5234 32.7845 41.6936 32.7845 39.7857C32.7845 37.8777 33.5425 36.0479 34.8916 34.6988C36.2407 33.3497 38.0705 32.5918 39.9784 32.5918C41.8863 32.5918 43.7161 33.3497 45.0652 34.6988C46.4144 36.0479 47.1723 37.8777 47.1723 39.7857Z" fill="#FBF8EE"/>
<path d="M63.7036 38.7138C58.5289 28.3618 49.3399 23 39.9783 23C30.6191 23 21.4277 28.3618 16.2529 38.7138C16.0866 39.0466 16 39.4136 16 39.7857C16 40.1578 16.0866 40.5247 16.2529 40.8576C21.4277 51.2095 30.6167 56.5714 39.9783 56.5714C49.3375 56.5714 58.5289 51.2095 63.7036 40.8576C63.87 40.5247 63.9565 40.1578 63.9565 39.7857C63.9565 39.4136 63.87 39.0466 63.7036 38.7138ZM39.9783 51.7755C32.8587 51.7755 25.5857 47.8908 21.1064 39.7857C25.5857 31.6806 32.8563 27.7959 39.9783 27.7959C47.0978 27.7959 54.3708 31.6806 58.8502 39.7857C54.3708 47.8908 47.0978 51.7755 39.9783 51.7755Z" fill="#FBF8EE"/>
</svg>
