<svg width="80" height="80" viewBox="0 0 80 80" fill="none" xmlns="http://www.w3.org/2000/svg">
<circle cx="40" cy="40" r="40" fill="#577590"/>
<path d="M40.2134 20.0509C39.545 20.0509 38.9039 20.3164 38.4313 20.789C37.9586 21.2617 37.6931 21.9028 37.6931 22.5712C37.6931 26.8356 32.5365 28.9728 29.5197 25.956C29.2872 25.7153 29.0091 25.5233 28.7016 25.3912C28.3941 25.2591 28.0634 25.1896 27.7288 25.1866C27.3941 25.1837 27.0622 25.2475 26.7525 25.3742C26.4428 25.501 26.1614 25.6881 25.9247 25.9247C25.6881 26.1614 25.501 26.4428 25.3742 26.7525C25.2475 27.0622 25.1837 27.3941 25.1866 27.7288C25.1896 28.0634 25.2591 28.3941 25.3912 28.7016C25.5233 29.0091 25.7153 29.2872 25.956 29.5197C28.9728 32.5365 26.8381 37.6931 22.5712 37.6931C21.9028 37.6931 21.2617 37.9586 20.789 38.4313C20.3164 38.9039 20.0509 39.545 20.0509 40.2134C20.0509 40.8818 20.3164 41.5229 20.789 41.9956C21.2617 42.4682 21.9028 42.7337 22.5712 42.7337C26.8356 42.7337 28.9728 47.8903 25.956 50.9071C25.4969 51.3825 25.2428 52.0191 25.2486 52.6799C25.2543 53.3407 25.5194 53.9729 25.9867 54.4402C26.454 54.9075 27.0861 55.1725 27.7469 55.1782C28.4077 55.184 29.0444 54.93 29.5197 54.4709C32.5365 51.454 37.6931 53.5888 37.6931 57.8557C37.6931 58.5241 37.9586 59.1651 38.4313 59.6378C38.9039 60.1104 39.545 60.376 40.2134 60.376C40.8818 60.376 41.5229 60.1104 41.9956 59.6378C42.4682 59.1651 42.7337 58.5241 42.7337 57.8557C42.7337 53.5913 47.8903 51.454 50.9071 54.4709C51.1396 54.7116 51.4177 54.9036 51.7252 55.0357C52.0327 55.1678 52.3634 55.2373 52.6981 55.2402C53.0327 55.2431 53.3646 55.1793 53.6743 55.0526C53.9841 54.9259 54.2655 54.7387 54.5021 54.5021C54.7387 54.2655 54.9259 53.9841 55.0526 53.6743C55.1793 53.3646 55.2431 53.0327 55.2402 52.6981C55.2373 52.3634 55.1678 52.0327 55.0357 51.7252C54.9036 51.4177 54.7116 51.1396 54.4709 50.9071C51.454 47.8903 53.5888 42.7337 57.8557 42.7337C58.5241 42.7337 59.1651 42.4682 59.6378 41.9956C60.1104 41.5229 60.376 40.8818 60.376 40.2134C60.376 39.545 60.1104 38.9039 59.6378 38.4313C59.1651 37.9586 58.5241 37.6931 57.8557 37.6931C53.5913 37.6931 51.454 32.5365 54.4709 29.5197C54.93 29.0444 55.184 28.4077 55.1783 27.7469C55.1725 27.0861 54.9075 26.454 54.4402 25.9867C53.9729 25.5194 53.3408 25.2543 52.6799 25.2486C52.0191 25.2428 51.3825 25.4969 50.9071 25.956C47.8903 28.9728 42.7337 26.8381 42.7337 22.5712C42.7337 21.9028 42.4682 21.2617 41.9956 20.789C41.5229 20.3164 40.8818 20.0509 40.2134 20.0509ZM32.6726 22.0092C32.812 20.1045 33.667 18.3231 35.0658 17.0229C36.4646 15.7227 38.3036 15 40.2134 15C42.1232 15 43.9622 15.7227 45.361 17.0229C46.7599 18.3231 47.6148 20.1045 47.7542 22.0092C49.2004 20.7671 51.0624 20.1172 52.9674 20.1895C54.8723 20.2618 56.6797 21.0511 58.0275 22.3992C59.3753 23.7474 60.1642 25.5549 60.236 27.4599C60.3079 29.3649 59.6576 31.2267 58.4152 32.6726C60.3199 32.8117 62.1014 33.6664 63.4018 35.065C64.7023 36.4636 65.4253 38.3025 65.4256 40.2122C65.4259 42.122 64.7035 43.9612 63.4035 45.3602C62.1036 46.7592 60.3223 47.6145 58.4177 47.7542C59.6597 49.2004 60.3097 51.0624 60.2373 52.9674C60.165 54.8723 59.3757 56.6797 58.0276 58.0275C56.6794 59.3753 54.8719 60.1642 52.9669 60.236C51.0619 60.3079 49.2001 59.6576 47.7542 58.4152C47.6148 60.3198 46.7599 62.1012 45.361 63.4014C43.9622 64.7016 42.1232 65.4243 40.2134 65.4243C38.3036 65.4243 36.4646 64.7016 35.0658 63.4014C33.667 62.1012 32.812 60.3198 32.6726 58.4152C31.2267 59.6576 29.3649 60.3079 27.4599 60.236C25.5549 60.1642 23.7474 59.3753 22.3992 58.0275C21.0511 56.6797 20.2618 54.8723 20.1895 52.9674C20.1172 51.0624 20.7671 49.2004 22.0092 47.7542C20.1045 47.6148 18.3231 46.7599 17.0229 45.361C15.7227 43.9622 15 42.1232 15 40.2134C15 38.3036 15.7227 36.4646 17.0229 35.0658C18.3231 33.667 20.1045 32.812 22.0092 32.6726C20.7633 31.227 20.1102 29.3637 20.1809 27.4566C20.2516 25.5495 21.0408 23.7397 22.3903 22.3903C23.7397 21.0408 25.5495 20.2516 27.4566 20.1809C29.3637 20.1102 31.227 20.7633 32.6726 22.0092Z" fill="#FBF8EE"/>
<path d="M40.2134 35.1733C38.8765 35.1733 37.5944 35.7044 36.6491 36.6497C35.7038 37.595 35.1727 38.8771 35.1727 40.2139C35.1727 41.5508 35.7038 42.8329 36.6491 43.7782C37.5944 44.7235 38.8765 45.2546 40.2134 45.2546C41.5502 45.2546 42.8323 44.7235 43.7776 43.7782C44.723 42.8329 45.254 41.5508 45.254 40.2139C45.254 38.8771 44.723 37.595 43.7776 36.6497C42.8323 35.7044 41.5502 35.1733 40.2134 35.1733ZM33.0859 33.0865C34.0159 32.1236 35.1283 31.3556 36.3583 30.8273C37.5882 30.2989 38.9111 30.0208 40.2497 30.0092C41.5882 29.9975 42.9157 30.2526 44.1547 30.7595C45.3936 31.2664 46.5192 32.015 47.4658 32.9615C48.4124 33.9081 49.1609 35.0337 49.6678 36.2726C50.1747 37.5116 50.4298 38.8391 50.4182 40.1777C50.4065 41.5163 50.1284 42.8391 49.6001 44.0691C49.0717 45.299 48.3037 46.4114 47.3408 47.3414C45.4395 49.1778 42.8929 50.1939 40.2497 50.171C37.6064 50.148 35.0779 49.0878 33.2087 47.2186C31.3396 45.3495 30.2793 42.8209 30.2564 40.1777C30.2334 37.5344 31.2495 34.9878 33.0859 33.0865Z" fill="#FBF8EE"/>
</svg>
