<svg width="80" height="80" viewBox="0 0 80 80" fill="none" xmlns="http://www.w3.org/2000/svg">
<circle cx="40" cy="40" r="40" fill="#97CC04"/>
<path d="M47.7778 35.5553C48.6618 35.5553 49.5097 35.2041 50.1348 34.579C50.7599 33.9539 51.1111 33.1061 51.1111 32.222C51.1111 31.3379 50.7599 30.4901 50.1348 29.865C49.5097 29.2399 48.6618 28.8887 47.7778 28.8887C46.8937 28.8887 46.0459 29.2399 45.4208 29.865C44.7956 30.4901 44.4445 31.3379 44.4445 32.222C44.4445 33.1061 44.7956 33.9539 45.4208 34.579C46.0459 35.2041 46.8937 35.5553 47.7778 35.5553Z" fill="#FBF8EE"/>
<path d="M20 24.4444C20 23.2657 20.4683 22.1352 21.3017 21.3017C22.1352 20.4683 23.2657 20 24.4444 20H55.5556C56.7343 20 57.8648 20.4683 58.6983 21.3017C59.5317 22.1352 60 23.2657 60 24.4444V55.5556C60 56.7343 59.5317 57.8648 58.6983 58.6983C57.8648 59.5317 56.7343 60 55.5556 60H24.4444C23.2657 60 22.1352 59.5317 21.3017 58.6983C20.4683 57.8648 20 56.7343 20 55.5556V24.4444ZM55.5556 24.4444H24.4444V42.0444L31.9444 36.0444C32.3386 35.7289 32.8284 35.5569 33.3333 35.5569C33.8382 35.5569 34.3281 35.7289 34.7222 36.0444L44.2778 43.6889L47.3178 40.6511C47.7345 40.2345 48.2996 40.0005 48.8889 40.0005C49.4781 40.0005 50.0433 40.2345 50.46 40.6511L55.5556 45.7467V24.4444ZM24.4444 55.5556H55.5556V52.0311L48.8889 45.3644L46.0156 48.2378C45.6289 48.6247 45.1131 48.8554 44.567 48.8857C44.0208 48.9161 43.4827 48.7439 43.0556 48.4022L33.3333 40.6222L24.4444 47.7333V55.5556Z" fill="#FBF8EE"/>
</svg>
