<svg width="80" height="80" viewBox="0 0 80 80" fill="none" xmlns="http://www.w3.org/2000/svg">
<circle cx="40" cy="40" r="40" fill="#577590"/>
<path d="M40.1203 13C40.5867 13.0003 41.0438 13.1331 41.4404 13.3837C41.837 13.6343 42.1575 13.9927 42.366 14.4187L48.8469 27.6518L63.0897 29.7659C63.5536 29.8347 63.9895 30.0347 64.3479 30.3434C64.7063 30.652 64.973 31.057 65.1178 31.5124C65.2626 31.9678 65.2797 32.4555 65.1673 32.9204C65.0548 33.3852 64.8172 33.8086 64.4813 34.1427L54.1144 44.4665L56.4455 59.0234C56.5204 59.4946 56.4651 59.9778 56.2858 60.4187C56.1064 60.8596 55.8102 61.2406 55.4305 61.5189C55.0507 61.7972 54.6024 61.9618 54.136 61.9941C53.6697 62.0264 53.2037 61.9252 52.7906 61.7018L40.1203 54.8364L27.45 61.7018C27.0369 61.9252 26.571 62.0264 26.1046 61.9941C25.6382 61.9618 25.19 61.7972 24.8102 61.5189C24.4304 61.2406 24.1342 60.8596 23.9549 60.4187C23.7755 59.9778 23.7202 59.4946 23.7951 59.0234L26.1262 44.4665L15.7593 34.1427C15.4235 33.8086 15.1859 33.3852 15.0734 32.9204C14.9609 32.4555 14.978 31.9678 15.1228 31.5124C15.2676 31.057 15.5343 30.652 15.8927 30.3434C16.2512 30.0347 16.687 29.8347 17.151 29.7659L31.3938 27.6518L37.8746 14.4187C38.0831 13.9927 38.4036 13.6343 38.8002 13.3837C39.1968 13.1331 39.6539 13.0003 40.1203 13ZM40.1203 21.3021L35.3024 31.1436C35.1216 31.5137 34.8558 31.8337 34.5278 32.0762C34.1997 32.3188 33.8191 32.4768 33.4184 32.5366L22.9084 34.0965L30.5698 41.7239C30.8594 42.012 31.0766 42.3672 31.2029 42.7593C31.3293 43.1515 31.3612 43.569 31.2958 43.9764L29.5701 54.744L38.9422 49.6643C39.305 49.4675 39.7095 49.3646 40.1203 49.3646C40.5311 49.3646 40.9356 49.4675 41.2984 49.6643L50.6705 54.744L48.9448 43.9764C48.8799 43.5694 48.9119 43.1524 49.0383 42.7607C49.1647 42.3691 49.3816 42.0143 49.6708 41.7264L57.3323 34.0965L46.8247 32.5366C46.424 32.4768 46.0434 32.3188 45.7154 32.0762C45.3873 31.8337 45.1216 31.5137 44.9408 31.1436L40.1203 21.3021Z" fill="#FBF8EE"/>
</svg>
